<?xml version="1.0" encoding="utf-8"?>
<!-- Generator: Adobe Illustrator 18.0.0, SVG Export Plug-In . SVG Version: 6.00 Build 0)  -->
<!DOCTYPE svg PUBLIC "-//W3C//DTD SVG 1.1//EN" "http://www.w3.org/Graphics/SVG/1.1/DTD/svg11.dtd">
<svg version="1.1" id="Isolation_Mode" xmlns="http://www.w3.org/2000/svg" xmlns:xlink="http://www.w3.org/1999/xlink" x="0px"
	 y="0px" viewBox="0 0 160.8 160.9" enable-background="new 0 0 160.8 160.9" xml:space="preserve">
<path d="M0,80.4C-0.5,36.8,35.3-0.4,81.4,0c43.5,0.4,81.1,36.7,79.5,83.5c-1.4,41.3-35.4,78.6-83,77.4C34.9,159.9-0.5,124.3,0,80.4z
	 M80.4,143.8c34.9,0.2,63-28.1,63.2-62.8c0.2-35.7-28.3-63.4-62.2-63.8c-35.7-0.5-64.6,28.6-64.5,63.2
	C16.9,115.4,45.3,143.8,80.4,143.8z"/>
<path d="M127.1,82.8c1.7,0,3.4,0,5,0c1.8,0,2.4,0.6,2.1,2.4c-0.7,4-1.3,8-2.4,11.8c-2.2,7.3-6,13.8-11.2,19.5
	c-6.3,6.9-13.8,11.9-22.6,15.1c-5.9,2.1-12,3.2-18.2,3.1c-11.3-0.2-21.7-3.6-30.9-10.2c-5.9-4.2-10.8-9.4-14.7-15.6
	c-4.2-6.6-6.7-13.8-7.5-21.5c-0.1-0.7-0.2-1.4-0.2-2.1c0-1.6,0.5-2.1,2-2.2c2.8-0.1,5.7-0.1,8.5-0.2c0.5,0,1,0,1.6,0
	c1.2-0.1,2-1,2-2.3c0-1.3-0.8-2.2-2-2.2c-2.5-0.1-5-0.2-7.4,0c-3.9,0.3-5-0.7-4.4-4.5c1.4-9.9,4.8-19,11.1-26.9
	c5.6-7,12.6-12.1,20.8-15.8c5.5-2.5,11.2-3.9,17.2-4.4c5.9-0.5,11.7,0,17.4,1.4c8.6,2.1,16.3,6.1,23,11.9c8.3,7.3,13.9,16.3,16.6,27
	c0.7,2.5,1.1,5.2,1.4,7.8c0.4,2.7-0.6,3.6-3.3,3.5c-3.1-0.1-6.1-0.1-9.2-0.1c-1.3,0-2.2,0.9-2.3,2.3c-0.1,1.4,0.8,2.4,2.2,2.4
	C123.5,82.9,125.3,82.9,127.1,82.8C127.1,82.8,127.1,82.8,127.1,82.8z M85.7,79.6c0-14,0-28,0-42c0-0.3,0.1-0.7,0-1
	c-0.1-0.3-0.3-0.8-0.6-0.9c-1.8-0.9-3.5,0-3.7,2c-0.1,1.2-0.1,2.5-0.1,3.7c0,26,0,51.9-0.1,77.9c0,0.9,0.1,1.8,0.2,2.6
	c0.2,1.3,1.3,1.9,2.6,1.8c1.5-0.2,1.7-0.4,1.7-2.1C85.7,107.6,85.7,93.6,85.7,79.6z M87.5,80C87.5,80,87.6,80,87.5,80
	c0.1,10.9,0.1,21.8,0.1,32.7c0,0.4-0.1,0.7,0,1.1c0.1,0.3,0.3,0.7,0.6,0.8c2,0.8,3.6-0.1,3.9-2.2c0.1-0.5,0.1-1,0.1-1.6
	c0-4.2-0.1-8.4-0.1-12.6c0-13.2,0-26.3,0-39.5c0-0.5,0.1-1,0.1-1.6c0-3.5,0-7-0.1-10.5c-0.1-1.4-0.9-2.2-2-2.1
	c-1.6,0.1-2.5,1-2.5,2.5C87.5,58,87.5,69,87.5,80z M73.4,78c0-8.3,0-16.6,0-25c0-0.6,0-1.3-0.1-1.9c-0.2-1.2-1.1-1.8-2.3-1.4
	c-1.7,0.6-2.3,1.4-2.3,3.4c0,17,0,33.9,0,50.9c0,0.5,0,1,0.2,1.5c0.4,1.4,1.1,1.8,2.6,1.6c1.2-0.1,1.8-0.9,1.8-2c0.1-1.5,0-3,0-4.5
	C73.4,93.1,73.4,85.5,73.4,78z M62,80.6c0,2.8,0,5.5,0,8.3c0,3.2,0,6.4,0,9.6c0,1.5,0.9,2.2,2.4,2c1.5-0.2,2.2-1,2.2-2.7
	c0-1.2-0.1-2.5-0.1-3.7c0-9,0-17.9,0-26.9c0-1.5,0-3-0.1-4.6c-0.1-2.1-1.5-3.1-3.2-2.3C62.1,61,62,62.1,62,63.1
	C62,68.9,62,74.8,62,80.6z M75,81.1c0,6.4,0,12.7,0,19.1c0,0.5,0,1,0.1,1.4c0.2,1.1,0.9,1.5,2,1.5c1,0,1.8-0.4,2-1.5
	c0.1-0.5,0.1-1,0.1-1.4c0-12.7,0-25.4,0-38c0-0.6,0-1.1-0.1-1.7c-0.2-1.1-1.2-1.7-2.2-1.5c-1.2,0.2-1.7,0.8-1.7,2.3
	C75,67.8,75,74.5,75,81.1z M98.5,79.6C98.5,79.6,98.4,79.6,98.5,79.6c0-1.1,0-2.2,0-3.4c0-5.2,0-10.3,0-15.5c0-1.4-0.6-2-1.9-2.1
	c-1.5-0.1-2.3,0.6-2.3,2.2c0,12.5,0,25,0,37.5c0,1.4,0.8,2.2,2.1,2.3c1.3,0,2.1-0.9,2.1-2.3C98.5,92.1,98.5,85.8,98.5,79.6z
	 M55.6,79.8c0,2.8,0,5.5,0,8.3c0,1.6,0.9,2.5,2.4,2.4c1.3,0,2.1-0.9,2.1-2.4c0-5.4,0-10.8,0-16.2c0-1.6-0.9-2.4-2.3-2.4
	c-1.4,0-2.1,0.7-2.1,2.4C55.6,74.6,55.6,77.2,55.6,79.8z M100.7,79.7C100.7,79.7,100.7,79.7,100.7,79.7c0,2.8,0,5.6,0,8.4
	c0,1.4,0.6,2,1.8,2c1.4,0.1,2.2-0.7,2.2-2.4c0-5.3,0-10.5,0-15.8c0-1.5-0.8-2.3-2.1-2.3c-1.3,0-1.9,0.7-1.9,2.3
	C100.7,74.5,100.7,77.1,100.7,79.7z M107,80.5c0,1.7,0,3.4,0,5.1c0,1.1,0.8,1.8,2.1,1.8c1.3,0,2.2-0.5,2.2-1.7
	c0.1-3.5,0.1-6.9,0-10.4c0-1.2-0.9-1.8-2.2-1.8c-1.3,0-2.1,0.7-2.1,1.9C107,77.1,107,78.8,107,80.5z M53.4,80.5c0-1.6,0-3.3,0-4.9
	c0-1.3-0.7-2-2-2c-1.2,0-1.9,0.6-2,1.9c0,3.3,0,6.6,0,9.9c0,1.4,0.7,2,2,2c1.3,0,1.9-0.7,1.9-2.1C53.4,83.7,53.4,82.1,53.4,80.5z
	 M117.9,80.6c0-0.6,0-1.2,0-1.8c0-1.5-0.6-2.2-2.1-2.2c-1.6,0-2.5,0.7-2.6,2.2c-0.1,1.2-0.1,2.3,0,3.5c0.1,1.5,1,2.2,2.6,2.1
	c1.4-0.1,2-0.7,2-2.2C117.9,81.7,117.9,81.1,117.9,80.6z M42.6,80.4C42.6,80.4,42.5,80.4,42.6,80.4c0,0.9,0,1.8,0.2,2.6
	c0.2,1,1.3,1.6,2.4,1.5c1.2-0.1,1.9-0.7,1.9-1.9c0.1-1.2,0.1-2.5,0-3.7c-0.1-1.8-0.8-2.3-2.7-2.2c-1.3,0.1-1.8,0.8-1.8,2.4
	C42.6,79.6,42.6,80,42.6,80.4z"/>
<path fill="#FFFFFF" d="M85.7,79.6c0,14,0,28,0,42c0,1.7-0.2,1.9-1.7,2.1c-1.3,0.2-2.3-0.5-2.6-1.8c-0.2-0.9-0.2-1.7-0.2-2.6
	c0-26,0-51.9,0.1-77.9c0-1.2-0.1-2.5,0.1-3.7c0.2-2,1.9-2.9,3.7-2c0.3,0.1,0.5,0.6,0.6,0.9c0.1,0.3,0,0.6,0,1
	C85.7,51.6,85.7,65.6,85.7,79.6z"/>
<path fill="#FFFFFF" d="M87.5,80c0-11,0-22,0-33c0-1.4,1-2.4,2.5-2.5c1-0.1,1.9,0.7,2,2.1c0.1,3.5,0.1,7,0.1,10.5
	c0,0.5-0.1,1-0.1,1.6c0,13.2,0,26.3,0,39.5c0,4.2,0.1,8.4,0.1,12.6c0,0.5,0,1-0.1,1.6c-0.4,2.1-2,3-3.9,2.2
	c-0.3-0.1-0.5-0.5-0.6-0.8c-0.1-0.3,0-0.7,0-1.1C87.6,101.9,87.6,90.9,87.5,80C87.6,80,87.5,80,87.5,80z"/>
<path fill="#FFFFFF" d="M73.4,78c0,7.6,0,15.1,0,22.7c0,1.5,0,3,0,4.5c0,1.1-0.6,1.9-1.8,2c-1.5,0.1-2.3-0.3-2.6-1.6
	c-0.1-0.5-0.2-1-0.2-1.5c0-17,0-33.9,0-50.9c0-2,0.6-2.9,2.3-3.4c1.2-0.4,2.1,0.2,2.3,1.4c0.1,0.6,0.1,1.3,0.1,1.9
	C73.4,61.3,73.4,69.7,73.4,78z"/>
<path fill="#FFFFFF" d="M62,80.6c0-5.8,0-11.7,0-17.5c0-1.1,0.1-2.1,1.2-2.7c1.7-0.8,3.1,0.2,3.2,2.3c0.1,1.5,0.1,3,0.1,4.6
	c0,9,0,17.9,0,26.9c0,1.2,0.2,2.5,0.1,3.7c0,1.7-0.7,2.5-2.2,2.7c-1.5,0.2-2.4-0.5-2.4-2c0-3.2,0-6.4,0-9.6C62,86.1,62,83.4,62,80.6
	z"/>
<path fill="#FFFFFF" d="M75,81.1c0-6.6,0-13.3,0-19.9c0-1.5,0.5-2.1,1.7-2.3c1.1-0.2,2,0.5,2.2,1.5c0.1,0.5,0.1,1.1,0.1,1.7
	c0,12.7,0,25.4,0,38c0,0.5,0,1-0.1,1.4c-0.2,1.1-0.9,1.5-2,1.5c-1.1,0-1.8-0.4-2-1.5c-0.1-0.5-0.1-1-0.1-1.4
	C75,93.8,75,87.5,75,81.1z"/>
<path fill="#FFFFFF" d="M98.5,79.6c0,6.2,0,12.5,0,18.7c0,1.5-0.8,2.4-2.1,2.3c-1.3,0-2.1-0.9-2.1-2.3c0-12.5,0-25,0-37.5
	c0-1.6,0.7-2.3,2.3-2.2c1.3,0.1,1.9,0.7,1.9,2.1c0,5.2,0,10.3,0,15.5C98.4,77.4,98.4,78.5,98.5,79.6C98.4,79.6,98.5,79.6,98.5,79.6z
	"/>
<path fill="#FFFFFF" d="M55.6,79.8c0-2.6,0-5.3,0-7.9c0-1.7,0.7-2.4,2.1-2.4c1.4,0,2.3,0.8,2.3,2.4c0,5.4,0,10.8,0,16.2
	c0,1.5-0.8,2.4-2.1,2.4c-1.4,0-2.3-0.8-2.4-2.4C55.6,85.4,55.6,82.6,55.6,79.8z"/>
<path fill="#FFFFFF" d="M100.7,79.7c0-2.6,0-5.2,0-7.8c0-1.6,0.6-2.3,1.9-2.3c1.3,0,2.1,0.8,2.1,2.3c0,5.3,0,10.5,0,15.8
	c0,1.6-0.8,2.4-2.2,2.4c-1.2-0.1-1.8-0.7-1.8-2C100.7,85.3,100.7,82.5,100.7,79.7C100.7,79.7,100.7,79.7,100.7,79.7z"/>
<path fill="#FFFFFF" d="M107,80.5c0-1.7,0-3.4,0-5c0-1.2,0.8-1.9,2.1-1.9c1.3,0,2.2,0.6,2.2,1.8c0.1,3.5,0,6.9,0,10.4
	c0,1.1-0.9,1.7-2.2,1.7c-1.3,0-2.1-0.7-2.1-1.8C107,83.9,107,82.2,107,80.5z"/>
<path fill="#FFFFFF" d="M53.4,80.5c0,1.6,0,3.2,0,4.8c0,1.4-0.7,2.1-1.9,2.1c-1.3,0-2-0.6-2-2c0-3.3,0-6.6,0-9.9
	c0-1.3,0.8-1.9,2-1.9c1.3,0,2,0.7,2,2C53.4,77.2,53.4,78.9,53.4,80.5z"/>
<path fill="#FFFFFF" d="M117.9,80.6c0,0.5,0,1,0,1.6c0,1.6-0.6,2.2-2,2.2c-1.6,0.1-2.5-0.7-2.6-2.1c-0.1-1.2-0.1-2.3,0-3.5
	c0.1-1.5,1-2.2,2.6-2.2c1.4,0,2,0.7,2.1,2.2C117.9,79.4,117.9,80,117.9,80.6z"/>
<path fill="#FFFFFF" d="M42.6,80.4c0-0.4,0-0.8,0-1.2c0-1.6,0.6-2.4,1.8-2.4c1.9-0.1,2.5,0.4,2.7,2.2c0.1,1.2,0.1,2.5,0,3.7
	c-0.1,1.2-0.7,1.8-1.9,1.9C44,84.6,43,84,42.8,83C42.6,82.1,42.6,81.3,42.6,80.4C42.5,80.4,42.6,80.4,42.6,80.4z"/>
</svg>
